{
  "accessors": [
    {
      "bufferView": 2,
      "componentType": 5126,
      "count": 1205,
      "max": [
        158.68325805664062,
        188.15116882324219,
        150.13029479980469
      ],
      "min": [
        -174.584716796875,
        -4.4454007148742676,
        -145.25218200683594
      ],
      "type": "VEC3"
    },
    {
      "bufferView": 2,
      "byteOffset": 14460,
      "componentType": 5126,
      "count": 1205,
      "max": [
        0.99998319149017334,
        1,
        0.99962437152862549
      ],
      "min": [
        -0.99572086334228516,
        -1,
        -0.99857765436172485
      ],
      "type": "VEC3"
    },
    {
      "bufferView": 3,
      "componentType": 5126,
      "count": 1205,
      "max": [
        1,
        0.91525250673294067,
        1,
        1
      ],
      "min": [
        -0.19594091176986694,
        -0.9226871132850647,
        -0.90622568130493164,
        -1
      ],
      "type": "VEC4"
    },
    {
      "bufferView": 1,
      "componentType": 5126,
      "count": 1205,
      "max": [
        0.96899318695068359,
        0.68446129560470581
      ],
      "min": [
        0.088181152939796448,
        0.0071681439876556396
      ],
      "type": "VEC2"
    },
    {
      "bufferView": 0,
      "componentType": 5125,
      "count": 6768,
      "max": [
        1204
      ],
      "min": [
        0
      ],
      "type": "SCALAR"
    },
    {
      "bufferView": 2,
      "byteOffset": 28920,
      "componentType": 5126,
      "count": 2776,
      "max": [
        118.35761260986328,
        160.22096252441406,
        107.26877593994141
      ],
      "min": [
        -114.94290924072266,
        -0.74612051248550415,
        -105.39414978027344
      ],
      "type": "VEC3"
    },
    {
      "bufferView": 2,
      "byteOffset": 62232,
      "componentType": 5126,
      "count": 2776,
      "max": [
        0.99856650829315186,
        0.99998593330383301,
        0.99769484996795654
      ],
      "min": [
        -0.9982413649559021,
        -0.91608643531799316,
        -0.99147886037826538
      ],
      "type": "VEC3"
    },
    {
      "bufferView": 3,
      "byteOffset": 19280,
      "componentType": 5126,
      "count": 2776,
      "max": [
        0.99999994039535522,
        0.9990115761756897,
        0.99998742341995239,
        1
      ],
      "min": [
        -0.80155879259109497,
        -0.99999749660491943,
        -0.99909943342208862,
        -1
      ],
      "type": "VEC4"
    },
    {
      "bufferView": 1,
      "byteOffset": 9640,
      "componentType": 5126,
      "count": 2776,
      "max": [
        0.94197958707809448,
        0.96590179204940796
      ],
      "min": [
        0.023971661925315857,
        0.053817428648471832
      ],
      "type": "VEC2"
    },
    {
      "bufferView": 0,
      "byteOffset": 27072,
      "componentType": 5125,
      "count": 10110,
      "max": [
        2775
      ],
      "min": [
        0
      ],
      "type": "SCALAR"
    }
  ],
  "asset": {
    "extras": {
      "author": "Laura Costa (https://sketchfab.com/LauraMG)",
      "license": "CC-BY-4.0 (http://creativecommons.org/licenses/by/4.0/)",
      "source": "https://sketchfab.com/3d-models/bongo-cat-in-winter-7e13685dc3194ae49d1b5617370252bc",
      "title": "Bongo Cat in Winter"
    },
    "generator": "Sketchfab-6.28.0",
    "version": "2.0"
  },
  "bufferViews": [
    {
      "buffer": 0,
      "byteLength": 67512,
      "byteOffset": 0,
      "name": "floatBufferViews",
      "target": 34963
    },
    {
      "buffer": 0,
      "byteLength": 31848,
      "byteOffset": 67512,
      "byteStride": 8,
      "name": "floatBufferViews",
      "target": 34962
    },
    {
      "buffer": 0,
      "byteLength": 95544,
      "byteOffset": 99360,
      "byteStride": 12,
      "name": "floatBufferViews",
      "target": 34962
    },
    {
      "buffer": 0,
      "byteLength": 63696,
      "byteOffset": 194904,
      "byteStride": 16,
      "name": "floatBufferViews",
      "target": 34962
    }
  ],
  "buffers": [
    {
      "byteLength": 258600,
      "uri": "scene.bin"
    }
  ],
  "extensionsUsed": [
    "KHR_materials_unlit"
  ],
  "images": [
    {
      "uri": "textures/FloorSnow_baseColor.png"
    }
  ],
  "materials": [
    {
      "doubleSided": true,
      "emissiveFactor": [
        0,
        0,
        0
      ],
      "extensions": {
        "KHR_materials_unlit": {}
      },
      "name": "FloorSnow",
      "pbrMetallicRoughness": {
        "baseColorFactor": [
          1,
          1,
          1,
          1
        ],
        "baseColorTexture": {
          "index": 0,
          "texCoord": 0
        },
        "metallicFactor": 0,
        "roughnessFactor": 1
      }
    },
    {
      "doubleSided": true,
      "emissiveFactor": [
        0,
        0,
        0
      ],
      "extensions": {
        "KHR_materials_unlit": {}
      },
      "name": "Texture",
      "pbrMetallicRoughness": {
        "baseColorFactor": [
          1,
          1,
          1,
          1
        ],
        "baseColorTexture": {
          "index": 0,
          "texCoord": 0
        },
        "metallicFactor": 0,
        "roughnessFactor": 1
      }
    }
  ],
  "meshes": [
    {
      "name": "0",
      "primitives": [
        {
          "attributes": {
            "NORMAL": 1,
            "POSITION": 0,
            "TANGENT": 2,
            "TEXCOORD_0": 3
          },
          "indices": 4,
          "material": 0,
          "mode": 4
        }
      ]
    },
    {
      "name": "1",
      "primitives": [
        {
          "attributes": {
            "NORMAL": 6,
            "POSITION": 5,
            "TANGENT": 7,
            "TEXCOORD_0": 8
          },
          "indices": 9,
          "material": 1,
          "mode": 4
        }
      ]
    }
  ],
  "nodes": [
    {
      "children": [
        1
      ],
      "name": "RootNode (gltf orientation matrix)",
      "rotation": [
        -0.70710678118654746,
        -0,
        -0,
        0.70710678118654757
      ]
    },
    {
      "children": [
        2
      ],
      "name": "RootNode (model correction matrix)"
    },
    {
      "children": [
        3
      ],
      "matrix": [
        1,
        0,
        0,
        0,
        0,
        0,
        1,
        0,
        0,
        -1,
        0,
        0,
        0,
        0,
        0,
        1
      ],
      "name": "270b324fac9f438fb1537ddd9723a7de.fbx"
    },
    {
      "children": [
        4
      ],
      "name": "RootNode"
    },
    {
      "children": [
        5,
        6
      ],
      "name": "Cat"
    },
    {
      "mesh": 0,
      "name": "0"
    },
    {
      "mesh": 1,
      "name": "1"
    }
  ],
  "samplers": [
    {
      "magFilter": 9729,
      "minFilter": 9987,
      "wrapS": 10497,
      "wrapT": 10497
    }
  ],
  "scene": 0,
  "scenes": [
    {
      "name": "OSG_Scene",
      "nodes": [
        0
      ]
    }
  ],
  "textures": [
    {
      "sampler": 0,
      "source": 0
    }
  ]
}

